<mxfile host="app.diagrams.net" modified="2023-06-05T14:43:53.309Z" agent="Mozilla/5.0 (Windows NT 10.0; Win64; x64) AppleWebKit/537.36 (KHTML, like Gecko) Chrome/114.0.0.0 Safari/537.36" etag="EiR5yB-eziP0H20-1Yku" version="21.3.7" type="device">
  <diagram name="Pagina-1" id="t4xXC4OWrp22J8FmVg-x">
    <mxGraphModel dx="1138" dy="1809" grid="1" gridSize="10" guides="1" tooltips="1" connect="1" arrows="1" fold="1" page="1" pageScale="1" pageWidth="827" pageHeight="1169" math="0" shadow="0">
      <root>
        <mxCell id="0" />
        <mxCell id="1" parent="0" />
        <mxCell id="ESL95GGbfHb56Cdl-5EP-1" value="" style="rounded=1;whiteSpace=wrap;html=1;" parent="1" vertex="1">
          <mxGeometry x="340" y="40" width="120" height="200" as="geometry" />
        </mxCell>
        <mxCell id="ESL95GGbfHb56Cdl-5EP-3" value="" style="rounded=0;whiteSpace=wrap;html=1;" parent="1" vertex="1">
          <mxGeometry x="160" y="120" width="80" height="40" as="geometry" />
        </mxCell>
        <mxCell id="ESL95GGbfHb56Cdl-5EP-4" value="&lt;b&gt;log view&lt;/b&gt;" style="text;html=1;align=center;verticalAlign=middle;resizable=0;points=[];autosize=1;strokeColor=none;fillColor=none;" parent="1" vertex="1">
          <mxGeometry x="165" y="125" width="70" height="30" as="geometry" />
        </mxCell>
        <mxCell id="ESL95GGbfHb56Cdl-5EP-27" value="" style="endArrow=none;html=1;rounded=0;" parent="1" edge="1">
          <mxGeometry width="50" height="50" relative="1" as="geometry">
            <mxPoint x="359.71000000000004" y="200" as="sourcePoint" />
            <mxPoint x="359.71000000000004" y="160" as="targetPoint" />
          </mxGeometry>
        </mxCell>
        <mxCell id="ESL95GGbfHb56Cdl-5EP-28" value="" style="endArrow=none;html=1;rounded=0;" parent="1" edge="1">
          <mxGeometry width="50" height="50" relative="1" as="geometry">
            <mxPoint x="359.71000000000004" y="160" as="sourcePoint" />
            <mxPoint x="369.71000000000004" y="160" as="targetPoint" />
          </mxGeometry>
        </mxCell>
        <mxCell id="ESL95GGbfHb56Cdl-5EP-29" value="" style="endArrow=none;html=1;rounded=0;" parent="1" edge="1">
          <mxGeometry width="50" height="50" relative="1" as="geometry">
            <mxPoint x="359.71000000000004" y="200" as="sourcePoint" />
            <mxPoint x="369.71000000000004" y="200" as="targetPoint" />
          </mxGeometry>
        </mxCell>
        <mxCell id="ESL95GGbfHb56Cdl-5EP-30" value="" style="endArrow=none;html=1;rounded=0;" parent="1" edge="1">
          <mxGeometry width="50" height="50" relative="1" as="geometry">
            <mxPoint x="439.71000000000004" y="160.57" as="sourcePoint" />
            <mxPoint x="439.71000000000004" y="200.57" as="targetPoint" />
          </mxGeometry>
        </mxCell>
        <mxCell id="ESL95GGbfHb56Cdl-5EP-31" value="" style="endArrow=none;html=1;rounded=0;" parent="1" edge="1">
          <mxGeometry width="50" height="50" relative="1" as="geometry">
            <mxPoint x="429.71000000000004" y="160.57" as="sourcePoint" />
            <mxPoint x="439.71000000000004" y="160.57" as="targetPoint" />
          </mxGeometry>
        </mxCell>
        <mxCell id="ESL95GGbfHb56Cdl-5EP-32" value="" style="endArrow=none;html=1;rounded=0;" parent="1" edge="1">
          <mxGeometry width="50" height="50" relative="1" as="geometry">
            <mxPoint x="429.71000000000004" y="200.57" as="sourcePoint" />
            <mxPoint x="439.71000000000004" y="200.57" as="targetPoint" />
          </mxGeometry>
        </mxCell>
        <mxCell id="ESL95GGbfHb56Cdl-5EP-34" value="continua:&lt;br&gt;&lt;b&gt;signIn view&lt;/b&gt;" style="text;html=1;strokeColor=none;fillColor=none;align=center;verticalAlign=middle;whiteSpace=wrap;rounded=0;" parent="1" vertex="1">
          <mxGeometry x="360" y="160" width="80" height="40" as="geometry" />
        </mxCell>
        <mxCell id="ESL95GGbfHb56Cdl-5EP-35" value="" style="endArrow=classic;html=1;rounded=0;exitX=1;exitY=0.5;exitDx=0;exitDy=0;entryX=0;entryY=0.5;entryDx=0;entryDy=0;" parent="1" source="ESL95GGbfHb56Cdl-5EP-3" edge="1">
          <mxGeometry width="50" height="50" relative="1" as="geometry">
            <mxPoint x="400" y="200" as="sourcePoint" />
            <mxPoint x="360" y="100.00000000000006" as="targetPoint" />
          </mxGeometry>
        </mxCell>
        <mxCell id="ESL95GGbfHb56Cdl-5EP-36" value="" style="endArrow=classic;html=1;rounded=0;exitX=1;exitY=0.5;exitDx=0;exitDy=0;entryX=0;entryY=0.5;entryDx=0;entryDy=0;" parent="1" source="ESL95GGbfHb56Cdl-5EP-3" target="ESL95GGbfHb56Cdl-5EP-34" edge="1">
          <mxGeometry width="50" height="50" relative="1" as="geometry">
            <mxPoint x="400" y="200" as="sourcePoint" />
            <mxPoint x="450" y="150" as="targetPoint" />
          </mxGeometry>
        </mxCell>
        <mxCell id="ESL95GGbfHb56Cdl-5EP-39" value="" style="rounded=0;whiteSpace=wrap;html=1;" parent="1" vertex="1">
          <mxGeometry x="360" y="80" width="80" height="40" as="geometry" />
        </mxCell>
        <mxCell id="ESL95GGbfHb56Cdl-5EP-40" value="" style="endArrow=none;html=1;rounded=0;exitX=1;exitY=0.5;exitDx=0;exitDy=0;" parent="1" source="ESL95GGbfHb56Cdl-5EP-39" edge="1">
          <mxGeometry width="50" height="50" relative="1" as="geometry">
            <mxPoint x="400" y="200" as="sourcePoint" />
            <mxPoint x="480" y="100" as="targetPoint" />
          </mxGeometry>
        </mxCell>
        <mxCell id="ESL95GGbfHb56Cdl-5EP-41" value="" style="rhombus;whiteSpace=wrap;html=1;" parent="1" vertex="1">
          <mxGeometry x="480" y="90" width="20" height="20" as="geometry" />
        </mxCell>
        <mxCell id="ESL95GGbfHb56Cdl-5EP-42" value="" style="endArrow=classic;html=1;rounded=0;exitX=0.5;exitY=0;exitDx=0;exitDy=0;entryX=0.5;entryY=0;entryDx=0;entryDy=0;" parent="1" source="ESL95GGbfHb56Cdl-5EP-41" target="ESL95GGbfHb56Cdl-5EP-1" edge="1">
          <mxGeometry width="50" height="50" relative="1" as="geometry">
            <mxPoint x="400" y="200" as="sourcePoint" />
            <mxPoint x="350" y="10" as="targetPoint" />
            <Array as="points">
              <mxPoint x="490" y="40" />
              <mxPoint x="490" />
              <mxPoint x="400" />
            </Array>
          </mxGeometry>
        </mxCell>
        <mxCell id="ESL95GGbfHb56Cdl-5EP-43" value="login fail" style="text;html=1;strokeColor=none;fillColor=none;align=center;verticalAlign=middle;whiteSpace=wrap;rounded=0;" parent="1" vertex="1">
          <mxGeometry x="340" width="60" height="30" as="geometry" />
        </mxCell>
        <mxCell id="ESL95GGbfHb56Cdl-5EP-44" value="" style="endArrow=classic;html=1;rounded=0;exitX=1;exitY=0.5;exitDx=0;exitDy=0;entryX=0;entryY=0.5;entryDx=0;entryDy=0;" parent="1" source="ESL95GGbfHb56Cdl-5EP-41" target="bW9s2679o0z1CHN03vp--7" edge="1">
          <mxGeometry width="50" height="50" relative="1" as="geometry">
            <mxPoint x="530" y="90" as="sourcePoint" />
            <mxPoint x="540" y="41" as="targetPoint" />
            <Array as="points" />
          </mxGeometry>
        </mxCell>
        <mxCell id="ESL95GGbfHb56Cdl-5EP-45" value="" style="endArrow=none;html=1;rounded=0;" parent="1" edge="1">
          <mxGeometry width="50" height="50" relative="1" as="geometry">
            <mxPoint x="629.63" y="108.6" as="sourcePoint" />
            <mxPoint x="629.63" y="68.6" as="targetPoint" />
          </mxGeometry>
        </mxCell>
        <mxCell id="ESL95GGbfHb56Cdl-5EP-46" value="" style="endArrow=none;html=1;rounded=0;" parent="1" edge="1">
          <mxGeometry width="50" height="50" relative="1" as="geometry">
            <mxPoint x="629.63" y="68.6" as="sourcePoint" />
            <mxPoint x="639.63" y="68.6" as="targetPoint" />
          </mxGeometry>
        </mxCell>
        <mxCell id="ESL95GGbfHb56Cdl-5EP-47" value="" style="endArrow=none;html=1;rounded=0;" parent="1" edge="1">
          <mxGeometry width="50" height="50" relative="1" as="geometry">
            <mxPoint x="629.63" y="108.6" as="sourcePoint" />
            <mxPoint x="639.63" y="108.6" as="targetPoint" />
          </mxGeometry>
        </mxCell>
        <mxCell id="ESL95GGbfHb56Cdl-5EP-48" value="" style="endArrow=none;html=1;rounded=0;" parent="1" edge="1">
          <mxGeometry width="50" height="50" relative="1" as="geometry">
            <mxPoint x="709.63" y="69.16999999999999" as="sourcePoint" />
            <mxPoint x="709.63" y="109.16999999999999" as="targetPoint" />
          </mxGeometry>
        </mxCell>
        <mxCell id="ESL95GGbfHb56Cdl-5EP-49" value="" style="endArrow=none;html=1;rounded=0;" parent="1" edge="1">
          <mxGeometry width="50" height="50" relative="1" as="geometry">
            <mxPoint x="699.63" y="69.16999999999999" as="sourcePoint" />
            <mxPoint x="709.63" y="69.16999999999999" as="targetPoint" />
          </mxGeometry>
        </mxCell>
        <mxCell id="ESL95GGbfHb56Cdl-5EP-50" value="" style="endArrow=none;html=1;rounded=0;" parent="1" edge="1">
          <mxGeometry width="50" height="50" relative="1" as="geometry">
            <mxPoint x="699.63" y="109.16999999999999" as="sourcePoint" />
            <mxPoint x="709.63" y="109.16999999999999" as="targetPoint" />
          </mxGeometry>
        </mxCell>
        <mxCell id="ESL95GGbfHb56Cdl-5EP-51" value="continua:&lt;br&gt;&lt;b&gt;home view&lt;/b&gt;" style="text;html=1;strokeColor=none;fillColor=none;align=center;verticalAlign=middle;whiteSpace=wrap;rounded=0;" parent="1" vertex="1">
          <mxGeometry x="629.63" y="70" width="80" height="40" as="geometry" />
        </mxCell>
        <mxCell id="ESL95GGbfHb56Cdl-5EP-53" value="login&amp;nbsp; admin success" style="text;html=1;strokeColor=none;fillColor=none;align=center;verticalAlign=middle;whiteSpace=wrap;rounded=0;" parent="1" vertex="1">
          <mxGeometry x="518.82" y="20.000000000000007" width="80" height="30" as="geometry" />
        </mxCell>
        <mxCell id="ESL95GGbfHb56Cdl-5EP-54" value="login" style="text;html=1;strokeColor=none;fillColor=none;align=center;verticalAlign=middle;whiteSpace=wrap;rounded=0;" parent="1" vertex="1">
          <mxGeometry x="360" y="81.4" width="80" height="40" as="geometry" />
        </mxCell>
        <mxCell id="ESL95GGbfHb56Cdl-5EP-55" value="" style="endArrow=classic;html=1;rounded=0;exitX=1;exitY=0.5;exitDx=0;exitDy=0;entryX=0;entryY=0.5;entryDx=0;entryDy=0;" parent="1" source="ESL95GGbfHb56Cdl-5EP-34" target="ESL95GGbfHb56Cdl-5EP-56" edge="1">
          <mxGeometry width="50" height="50" relative="1" as="geometry">
            <mxPoint x="420" y="230" as="sourcePoint" />
            <mxPoint x="490" y="180" as="targetPoint" />
          </mxGeometry>
        </mxCell>
        <mxCell id="ESL95GGbfHb56Cdl-5EP-56" value="" style="rounded=1;whiteSpace=wrap;html=1;" parent="1" vertex="1">
          <mxGeometry x="580" y="140" width="120" height="200" as="geometry" />
        </mxCell>
        <mxCell id="ESL95GGbfHb56Cdl-5EP-57" value="" style="rounded=0;whiteSpace=wrap;html=1;" parent="1" vertex="1">
          <mxGeometry x="600" y="220" width="80" height="40" as="geometry" />
        </mxCell>
        <mxCell id="ESL95GGbfHb56Cdl-5EP-58" value="sign in" style="text;html=1;strokeColor=none;fillColor=none;align=center;verticalAlign=middle;whiteSpace=wrap;rounded=0;" parent="1" vertex="1">
          <mxGeometry x="600" y="220" width="80" height="40" as="geometry" />
        </mxCell>
        <mxCell id="ESL95GGbfHb56Cdl-5EP-59" value="" style="endArrow=none;html=1;rounded=0;exitX=1;exitY=0.5;exitDx=0;exitDy=0;" parent="1" source="ESL95GGbfHb56Cdl-5EP-58" edge="1">
          <mxGeometry width="50" height="50" relative="1" as="geometry">
            <mxPoint x="420" y="230" as="sourcePoint" />
            <mxPoint x="730" y="240" as="targetPoint" />
          </mxGeometry>
        </mxCell>
        <mxCell id="ESL95GGbfHb56Cdl-5EP-61" value="" style="rhombus;whiteSpace=wrap;html=1;" parent="1" vertex="1">
          <mxGeometry x="730" y="230" width="20" height="20" as="geometry" />
        </mxCell>
        <mxCell id="ESL95GGbfHb56Cdl-5EP-62" value="" style="endArrow=classic;html=1;rounded=0;exitX=0.5;exitY=0;exitDx=0;exitDy=0;entryX=0.829;entryY=-0.005;entryDx=0;entryDy=0;entryPerimeter=0;" parent="1" source="ESL95GGbfHb56Cdl-5EP-61" target="ESL95GGbfHb56Cdl-5EP-1" edge="1">
          <mxGeometry width="50" height="50" relative="1" as="geometry">
            <mxPoint x="420" y="230" as="sourcePoint" />
            <mxPoint x="420" y="20" as="targetPoint" />
            <Array as="points">
              <mxPoint x="740" y="-40" />
              <mxPoint x="439" y="-40" />
            </Array>
          </mxGeometry>
        </mxCell>
        <mxCell id="ESL95GGbfHb56Cdl-5EP-63" value="sign in success" style="text;html=1;strokeColor=none;fillColor=none;align=center;verticalAlign=middle;whiteSpace=wrap;rounded=0;" parent="1" vertex="1">
          <mxGeometry x="550" y="-80" width="110" height="40" as="geometry" />
        </mxCell>
        <mxCell id="ESL95GGbfHb56Cdl-5EP-64" value="" style="endArrow=classic;html=1;rounded=0;exitX=1;exitY=0.5;exitDx=0;exitDy=0;entryX=1.023;entryY=0.899;entryDx=0;entryDy=0;entryPerimeter=0;" parent="1" source="ESL95GGbfHb56Cdl-5EP-61" target="ESL95GGbfHb56Cdl-5EP-56" edge="1">
          <mxGeometry width="50" height="50" relative="1" as="geometry">
            <mxPoint x="420" y="220" as="sourcePoint" />
            <mxPoint x="740" y="330" as="targetPoint" />
            <Array as="points">
              <mxPoint x="800" y="240" />
              <mxPoint x="800" y="320" />
            </Array>
          </mxGeometry>
        </mxCell>
        <mxCell id="ESL95GGbfHb56Cdl-5EP-65" value="sign in fail" style="text;html=1;strokeColor=none;fillColor=none;align=center;verticalAlign=middle;whiteSpace=wrap;rounded=0;" parent="1" vertex="1">
          <mxGeometry x="720" y="290" width="75" height="40" as="geometry" />
        </mxCell>
        <mxCell id="ESL95GGbfHb56Cdl-5EP-66" value="" style="rounded=1;whiteSpace=wrap;html=1;" parent="1" vertex="1">
          <mxGeometry x="337.99" y="290" width="120" height="440" as="geometry" />
        </mxCell>
        <mxCell id="ESL95GGbfHb56Cdl-5EP-68" value="" style="rounded=0;whiteSpace=wrap;html=1;" parent="1" vertex="1">
          <mxGeometry x="152.99" y="490" width="80" height="40" as="geometry" />
        </mxCell>
        <mxCell id="ESL95GGbfHb56Cdl-5EP-70" value="&lt;b&gt;home view&lt;/b&gt;" style="text;html=1;strokeColor=none;fillColor=none;align=center;verticalAlign=middle;whiteSpace=wrap;rounded=0;" parent="1" vertex="1">
          <mxGeometry x="152.99" y="490" width="80" height="40" as="geometry" />
        </mxCell>
        <mxCell id="ESL95GGbfHb56Cdl-5EP-71" value="" style="endArrow=none;html=1;rounded=0;" parent="1" edge="1">
          <mxGeometry width="50" height="50" relative="1" as="geometry">
            <mxPoint x="357.99" y="350" as="sourcePoint" />
            <mxPoint x="357.99" y="310" as="targetPoint" />
          </mxGeometry>
        </mxCell>
        <mxCell id="ESL95GGbfHb56Cdl-5EP-72" value="" style="endArrow=none;html=1;rounded=0;" parent="1" edge="1">
          <mxGeometry width="50" height="50" relative="1" as="geometry">
            <mxPoint x="357.99" y="310" as="sourcePoint" />
            <mxPoint x="367.99" y="310" as="targetPoint" />
          </mxGeometry>
        </mxCell>
        <mxCell id="ESL95GGbfHb56Cdl-5EP-73" value="" style="endArrow=none;html=1;rounded=0;" parent="1" edge="1">
          <mxGeometry width="50" height="50" relative="1" as="geometry">
            <mxPoint x="357.99" y="350" as="sourcePoint" />
            <mxPoint x="367.99" y="350" as="targetPoint" />
          </mxGeometry>
        </mxCell>
        <mxCell id="ESL95GGbfHb56Cdl-5EP-74" value="" style="endArrow=none;html=1;rounded=0;" parent="1" edge="1">
          <mxGeometry width="50" height="50" relative="1" as="geometry">
            <mxPoint x="437.99" y="310.57" as="sourcePoint" />
            <mxPoint x="437.99" y="350.57" as="targetPoint" />
          </mxGeometry>
        </mxCell>
        <mxCell id="ESL95GGbfHb56Cdl-5EP-75" value="" style="endArrow=none;html=1;rounded=0;" parent="1" edge="1">
          <mxGeometry width="50" height="50" relative="1" as="geometry">
            <mxPoint x="427.99" y="310.57" as="sourcePoint" />
            <mxPoint x="437.99" y="310.57" as="targetPoint" />
          </mxGeometry>
        </mxCell>
        <mxCell id="ESL95GGbfHb56Cdl-5EP-76" value="" style="endArrow=none;html=1;rounded=0;" parent="1" edge="1">
          <mxGeometry width="50" height="50" relative="1" as="geometry">
            <mxPoint x="427.99" y="350.57" as="sourcePoint" />
            <mxPoint x="437.99" y="350.57" as="targetPoint" />
          </mxGeometry>
        </mxCell>
        <mxCell id="ESL95GGbfHb56Cdl-5EP-89" value="" style="endArrow=none;html=1;rounded=0;" parent="1" edge="1">
          <mxGeometry width="50" height="50" relative="1" as="geometry">
            <mxPoint x="357.99" y="470" as="sourcePoint" />
            <mxPoint x="357.99" y="430" as="targetPoint" />
          </mxGeometry>
        </mxCell>
        <mxCell id="ESL95GGbfHb56Cdl-5EP-90" value="" style="endArrow=none;html=1;rounded=0;" parent="1" edge="1">
          <mxGeometry width="50" height="50" relative="1" as="geometry">
            <mxPoint x="357.99" y="430" as="sourcePoint" />
            <mxPoint x="367.99" y="430" as="targetPoint" />
          </mxGeometry>
        </mxCell>
        <mxCell id="ESL95GGbfHb56Cdl-5EP-91" value="" style="endArrow=none;html=1;rounded=0;" parent="1" edge="1">
          <mxGeometry width="50" height="50" relative="1" as="geometry">
            <mxPoint x="357.99" y="470" as="sourcePoint" />
            <mxPoint x="367.99" y="470" as="targetPoint" />
          </mxGeometry>
        </mxCell>
        <mxCell id="ESL95GGbfHb56Cdl-5EP-92" value="" style="endArrow=none;html=1;rounded=0;" parent="1" edge="1">
          <mxGeometry width="50" height="50" relative="1" as="geometry">
            <mxPoint x="437.99" y="430.57" as="sourcePoint" />
            <mxPoint x="437.99" y="470.56999999999994" as="targetPoint" />
          </mxGeometry>
        </mxCell>
        <mxCell id="ESL95GGbfHb56Cdl-5EP-93" value="" style="endArrow=none;html=1;rounded=0;" parent="1" edge="1">
          <mxGeometry width="50" height="50" relative="1" as="geometry">
            <mxPoint x="427.99" y="430.57" as="sourcePoint" />
            <mxPoint x="437.99" y="430.57" as="targetPoint" />
          </mxGeometry>
        </mxCell>
        <mxCell id="ESL95GGbfHb56Cdl-5EP-94" value="" style="endArrow=none;html=1;rounded=0;" parent="1" edge="1">
          <mxGeometry width="50" height="50" relative="1" as="geometry">
            <mxPoint x="427.99" y="470.56999999999994" as="sourcePoint" />
            <mxPoint x="437.99" y="470.56999999999994" as="targetPoint" />
          </mxGeometry>
        </mxCell>
        <mxCell id="ESL95GGbfHb56Cdl-5EP-95" value="" style="endArrow=none;html=1;rounded=0;" parent="1" edge="1">
          <mxGeometry width="50" height="50" relative="1" as="geometry">
            <mxPoint x="357.99" y="408.74" as="sourcePoint" />
            <mxPoint x="357.99" y="368.74" as="targetPoint" />
          </mxGeometry>
        </mxCell>
        <mxCell id="ESL95GGbfHb56Cdl-5EP-96" value="" style="endArrow=none;html=1;rounded=0;" parent="1" edge="1">
          <mxGeometry width="50" height="50" relative="1" as="geometry">
            <mxPoint x="357.99" y="368.74" as="sourcePoint" />
            <mxPoint x="367.99" y="368.74" as="targetPoint" />
          </mxGeometry>
        </mxCell>
        <mxCell id="ESL95GGbfHb56Cdl-5EP-97" value="" style="endArrow=none;html=1;rounded=0;" parent="1" edge="1">
          <mxGeometry width="50" height="50" relative="1" as="geometry">
            <mxPoint x="357.99" y="408.74" as="sourcePoint" />
            <mxPoint x="367.99" y="408.74" as="targetPoint" />
          </mxGeometry>
        </mxCell>
        <mxCell id="ESL95GGbfHb56Cdl-5EP-98" value="" style="endArrow=none;html=1;rounded=0;" parent="1" edge="1">
          <mxGeometry width="50" height="50" relative="1" as="geometry">
            <mxPoint x="437.99" y="369.31" as="sourcePoint" />
            <mxPoint x="437.99" y="409.31" as="targetPoint" />
          </mxGeometry>
        </mxCell>
        <mxCell id="ESL95GGbfHb56Cdl-5EP-99" value="" style="endArrow=none;html=1;rounded=0;" parent="1" edge="1">
          <mxGeometry width="50" height="50" relative="1" as="geometry">
            <mxPoint x="427.99" y="369.31" as="sourcePoint" />
            <mxPoint x="437.99" y="369.31" as="targetPoint" />
          </mxGeometry>
        </mxCell>
        <mxCell id="ESL95GGbfHb56Cdl-5EP-100" value="" style="endArrow=none;html=1;rounded=0;" parent="1" edge="1">
          <mxGeometry width="50" height="50" relative="1" as="geometry">
            <mxPoint x="427.99" y="409.31" as="sourcePoint" />
            <mxPoint x="437.99" y="409.31" as="targetPoint" />
          </mxGeometry>
        </mxCell>
        <mxCell id="ESL95GGbfHb56Cdl-5EP-102" value="" style="rounded=0;whiteSpace=wrap;html=1;" parent="1" vertex="1">
          <mxGeometry x="357.99" y="670" width="80" height="40" as="geometry" />
        </mxCell>
        <mxCell id="ESL95GGbfHb56Cdl-5EP-103" value="map" style="text;html=1;strokeColor=none;fillColor=none;align=center;verticalAlign=middle;whiteSpace=wrap;rounded=0;" parent="1" vertex="1">
          <mxGeometry x="357.99" y="670" width="80" height="40" as="geometry" />
        </mxCell>
        <mxCell id="ESL95GGbfHb56Cdl-5EP-105" value="continua:&lt;br style=&quot;border-color: var(--border-color);&quot;&gt;&lt;b style=&quot;border-color: var(--border-color);&quot;&gt;rank view&lt;/b&gt;" style="text;html=1;strokeColor=none;fillColor=none;align=center;verticalAlign=middle;whiteSpace=wrap;rounded=0;" parent="1" vertex="1">
          <mxGeometry x="357.99" y="430" width="80" height="40" as="geometry" />
        </mxCell>
        <mxCell id="ESL95GGbfHb56Cdl-5EP-106" value="continua:&lt;br style=&quot;border-color: var(--border-color);&quot;&gt;&lt;b style=&quot;border-color: var(--border-color);&quot;&gt;cache view&lt;/b&gt;" style="text;html=1;strokeColor=none;fillColor=none;align=center;verticalAlign=middle;whiteSpace=wrap;rounded=0;" parent="1" vertex="1">
          <mxGeometry x="357.99" y="370" width="80" height="40" as="geometry" />
        </mxCell>
        <mxCell id="ESL95GGbfHb56Cdl-5EP-107" value="continua:&lt;br&gt;&lt;b&gt;profile view&lt;/b&gt;" style="text;html=1;strokeColor=none;fillColor=none;align=center;verticalAlign=middle;whiteSpace=wrap;rounded=0;" parent="1" vertex="1">
          <mxGeometry x="357.99" y="310" width="80" height="40" as="geometry" />
        </mxCell>
        <mxCell id="ESL95GGbfHb56Cdl-5EP-113" value="" style="endArrow=classic;html=1;rounded=0;exitX=1;exitY=0.5;exitDx=0;exitDy=0;entryX=0;entryY=0.5;entryDx=0;entryDy=0;" parent="1" source="ESL95GGbfHb56Cdl-5EP-70" target="ESL95GGbfHb56Cdl-5EP-103" edge="1">
          <mxGeometry width="50" height="50" relative="1" as="geometry">
            <mxPoint x="467.99" y="440" as="sourcePoint" />
            <mxPoint x="517.99" y="390" as="targetPoint" />
          </mxGeometry>
        </mxCell>
        <mxCell id="ESL95GGbfHb56Cdl-5EP-114" value="" style="endArrow=classic;html=1;rounded=0;exitX=1;exitY=0.5;exitDx=0;exitDy=0;entryX=0;entryY=0.5;entryDx=0;entryDy=0;" parent="1" source="ESL95GGbfHb56Cdl-5EP-70" edge="1" target="ESL95GGbfHb56Cdl-5EP-120">
          <mxGeometry width="50" height="50" relative="1" as="geometry">
            <mxPoint x="477.99" y="450" as="sourcePoint" />
            <mxPoint x="357.99" y="510" as="targetPoint" />
          </mxGeometry>
        </mxCell>
        <mxCell id="ESL95GGbfHb56Cdl-5EP-115" value="" style="endArrow=classic;html=1;rounded=0;exitX=1;exitY=0.5;exitDx=0;exitDy=0;entryX=0;entryY=0.5;entryDx=0;entryDy=0;" parent="1" source="ESL95GGbfHb56Cdl-5EP-70" target="ESL95GGbfHb56Cdl-5EP-105" edge="1">
          <mxGeometry width="50" height="50" relative="1" as="geometry">
            <mxPoint x="487.99" y="460" as="sourcePoint" />
            <mxPoint x="537.99" y="410" as="targetPoint" />
          </mxGeometry>
        </mxCell>
        <mxCell id="ESL95GGbfHb56Cdl-5EP-116" value="" style="endArrow=classic;html=1;rounded=0;exitX=1;exitY=0.5;exitDx=0;exitDy=0;entryX=0;entryY=0.5;entryDx=0;entryDy=0;" parent="1" source="ESL95GGbfHb56Cdl-5EP-70" target="ESL95GGbfHb56Cdl-5EP-106" edge="1">
          <mxGeometry width="50" height="50" relative="1" as="geometry">
            <mxPoint x="497.99" y="470" as="sourcePoint" />
            <mxPoint x="547.99" y="420" as="targetPoint" />
          </mxGeometry>
        </mxCell>
        <mxCell id="ESL95GGbfHb56Cdl-5EP-117" value="" style="endArrow=classic;html=1;rounded=0;exitX=1;exitY=0.5;exitDx=0;exitDy=0;entryX=0;entryY=0.5;entryDx=0;entryDy=0;" parent="1" source="ESL95GGbfHb56Cdl-5EP-70" target="ESL95GGbfHb56Cdl-5EP-107" edge="1">
          <mxGeometry width="50" height="50" relative="1" as="geometry">
            <mxPoint x="507.99" y="480" as="sourcePoint" />
            <mxPoint x="557.99" y="430" as="targetPoint" />
          </mxGeometry>
        </mxCell>
        <mxCell id="ESL95GGbfHb56Cdl-5EP-118" value="&lt;b style=&quot;border-color: var(--border-color);&quot;&gt;profile view&lt;/b&gt;" style="rounded=0;whiteSpace=wrap;html=1;" parent="1" vertex="1">
          <mxGeometry x="165" y="880" width="80" height="40" as="geometry" />
        </mxCell>
        <mxCell id="ESL95GGbfHb56Cdl-5EP-119" value="" style="rounded=1;whiteSpace=wrap;html=1;" parent="1" vertex="1">
          <mxGeometry x="340" y="790" width="120" height="210" as="geometry" />
        </mxCell>
        <mxCell id="ESL95GGbfHb56Cdl-5EP-120" value="search path" style="rounded=0;whiteSpace=wrap;html=1;" parent="1" vertex="1">
          <mxGeometry x="357.99" y="610" width="80" height="40" as="geometry" />
        </mxCell>
        <mxCell id="ESL95GGbfHb56Cdl-5EP-122" value="" style="endArrow=classic;html=1;rounded=0;exitX=1;exitY=0.5;exitDx=0;exitDy=0;entryX=1;entryY=0.5;entryDx=0;entryDy=0;" parent="1" source="ESL95GGbfHb56Cdl-5EP-120" target="ESL95GGbfHb56Cdl-5EP-103" edge="1">
          <mxGeometry width="50" height="50" relative="1" as="geometry">
            <mxPoint x="437.99" y="560" as="sourcePoint" />
            <mxPoint x="487.99" y="590" as="targetPoint" />
            <Array as="points">
              <mxPoint x="517.99" y="630" />
              <mxPoint x="517.99" y="690" />
            </Array>
          </mxGeometry>
        </mxCell>
        <mxCell id="ESL95GGbfHb56Cdl-5EP-123" value="" style="rounded=0;whiteSpace=wrap;html=1;" parent="1" vertex="1">
          <mxGeometry x="360" y="820" width="80" height="40" as="geometry" />
        </mxCell>
        <mxCell id="ESL95GGbfHb56Cdl-5EP-126" value="info" style="text;html=1;strokeColor=none;fillColor=none;align=center;verticalAlign=middle;whiteSpace=wrap;rounded=0;" parent="1" vertex="1">
          <mxGeometry x="360" y="820" width="80" height="40" as="geometry" />
        </mxCell>
        <mxCell id="ESL95GGbfHb56Cdl-5EP-127" value="" style="rounded=0;whiteSpace=wrap;html=1;" parent="1" vertex="1">
          <mxGeometry x="360" y="880" width="80" height="40" as="geometry" />
        </mxCell>
        <mxCell id="ESL95GGbfHb56Cdl-5EP-132" value="" style="rhombus;whiteSpace=wrap;html=1;" parent="1" vertex="1">
          <mxGeometry x="490" y="890" width="20" height="20" as="geometry" />
        </mxCell>
        <mxCell id="ESL95GGbfHb56Cdl-5EP-133" value="" style="endArrow=none;html=1;rounded=0;entryX=0;entryY=0.5;entryDx=0;entryDy=0;exitX=1;exitY=0.5;exitDx=0;exitDy=0;" parent="1" source="bW9s2679o0z1CHN03vp--49" target="ESL95GGbfHb56Cdl-5EP-132" edge="1">
          <mxGeometry width="50" height="50" relative="1" as="geometry">
            <mxPoint x="460" y="900" as="sourcePoint" />
            <mxPoint x="450" y="800" as="targetPoint" />
          </mxGeometry>
        </mxCell>
        <mxCell id="ESL95GGbfHb56Cdl-5EP-140" value="" style="endArrow=classic;html=1;rounded=0;exitX=1;exitY=0.5;exitDx=0;exitDy=0;entryX=0;entryY=0.5;entryDx=0;entryDy=0;" parent="1" source="ESL95GGbfHb56Cdl-5EP-118" target="ESL95GGbfHb56Cdl-5EP-153" edge="1">
          <mxGeometry width="50" height="50" relative="1" as="geometry">
            <mxPoint x="220" y="860" as="sourcePoint" />
            <mxPoint x="290" y="990" as="targetPoint" />
          </mxGeometry>
        </mxCell>
        <mxCell id="ESL95GGbfHb56Cdl-5EP-142" value="" style="endArrow=classic;html=1;rounded=0;exitX=1;exitY=0.5;exitDx=0;exitDy=0;entryX=0;entryY=0.5;entryDx=0;entryDy=0;" parent="1" source="ESL95GGbfHb56Cdl-5EP-118" edge="1">
          <mxGeometry width="50" height="50" relative="1" as="geometry">
            <mxPoint x="240" y="880" as="sourcePoint" />
            <mxPoint x="360" y="900" as="targetPoint" />
          </mxGeometry>
        </mxCell>
        <mxCell id="ESL95GGbfHb56Cdl-5EP-143" value="" style="endArrow=classic;html=1;rounded=0;exitX=1;exitY=0.5;exitDx=0;exitDy=0;entryX=0;entryY=0.5;entryDx=0;entryDy=0;" parent="1" source="ESL95GGbfHb56Cdl-5EP-118" target="ESL95GGbfHb56Cdl-5EP-126" edge="1">
          <mxGeometry width="50" height="50" relative="1" as="geometry">
            <mxPoint x="240" y="920" as="sourcePoint" />
            <mxPoint x="300" y="840" as="targetPoint" />
          </mxGeometry>
        </mxCell>
        <mxCell id="ESL95GGbfHb56Cdl-5EP-144" value="" style="endArrow=none;html=1;rounded=0;" parent="1" edge="1">
          <mxGeometry width="50" height="50" relative="1" as="geometry">
            <mxPoint x="360" y="980" as="sourcePoint" />
            <mxPoint x="360" y="940" as="targetPoint" />
          </mxGeometry>
        </mxCell>
        <mxCell id="ESL95GGbfHb56Cdl-5EP-145" value="" style="endArrow=none;html=1;rounded=0;" parent="1" edge="1">
          <mxGeometry width="50" height="50" relative="1" as="geometry">
            <mxPoint x="360" y="940" as="sourcePoint" />
            <mxPoint x="370" y="940" as="targetPoint" />
          </mxGeometry>
        </mxCell>
        <mxCell id="ESL95GGbfHb56Cdl-5EP-146" value="" style="endArrow=none;html=1;rounded=0;" parent="1" edge="1">
          <mxGeometry width="50" height="50" relative="1" as="geometry">
            <mxPoint x="360" y="980" as="sourcePoint" />
            <mxPoint x="370" y="980" as="targetPoint" />
          </mxGeometry>
        </mxCell>
        <mxCell id="ESL95GGbfHb56Cdl-5EP-147" value="" style="endArrow=none;html=1;rounded=0;" parent="1" edge="1">
          <mxGeometry width="50" height="50" relative="1" as="geometry">
            <mxPoint x="440" y="940.5699999999999" as="sourcePoint" />
            <mxPoint x="440" y="980.5699999999999" as="targetPoint" />
          </mxGeometry>
        </mxCell>
        <mxCell id="ESL95GGbfHb56Cdl-5EP-148" value="" style="endArrow=none;html=1;rounded=0;" parent="1" edge="1">
          <mxGeometry width="50" height="50" relative="1" as="geometry">
            <mxPoint x="430" y="940.5699999999999" as="sourcePoint" />
            <mxPoint x="440" y="940.5699999999999" as="targetPoint" />
          </mxGeometry>
        </mxCell>
        <mxCell id="ESL95GGbfHb56Cdl-5EP-149" value="" style="endArrow=none;html=1;rounded=0;" parent="1" edge="1">
          <mxGeometry width="50" height="50" relative="1" as="geometry">
            <mxPoint x="430" y="980.5699999999999" as="sourcePoint" />
            <mxPoint x="440" y="980.5699999999999" as="targetPoint" />
          </mxGeometry>
        </mxCell>
        <mxCell id="ESL95GGbfHb56Cdl-5EP-153" value="return:&lt;br&gt;&lt;b&gt;home view&lt;/b&gt;" style="text;html=1;strokeColor=none;fillColor=none;align=center;verticalAlign=middle;whiteSpace=wrap;rounded=0;" parent="1" vertex="1">
          <mxGeometry x="360" y="940" width="80" height="40" as="geometry" />
        </mxCell>
        <mxCell id="ESL95GGbfHb56Cdl-5EP-158" value="" style="rounded=0;whiteSpace=wrap;html=1;" parent="1" vertex="1">
          <mxGeometry x="160" y="1280" width="80" height="40" as="geometry" />
        </mxCell>
        <mxCell id="ESL95GGbfHb56Cdl-5EP-159" value="" style="rounded=1;whiteSpace=wrap;html=1;" parent="1" vertex="1">
          <mxGeometry x="340" y="1190" width="120" height="220" as="geometry" />
        </mxCell>
        <mxCell id="ESL95GGbfHb56Cdl-5EP-160" style="edgeStyle=orthogonalEdgeStyle;rounded=0;orthogonalLoop=1;jettySize=auto;html=1;exitX=0.5;exitY=1;exitDx=0;exitDy=0;" parent="1" edge="1">
          <mxGeometry relative="1" as="geometry">
            <mxPoint x="500" y="880" as="sourcePoint" />
            <mxPoint x="500" y="880" as="targetPoint" />
          </mxGeometry>
        </mxCell>
        <mxCell id="ESL95GGbfHb56Cdl-5EP-184" value="" style="endArrow=classic;html=1;rounded=0;exitX=1;exitY=0.5;exitDx=0;exitDy=0;entryX=0.998;entryY=0.425;entryDx=0;entryDy=0;entryPerimeter=0;" parent="1" source="ESL95GGbfHb56Cdl-5EP-132" target="ESL95GGbfHb56Cdl-5EP-119" edge="1">
          <mxGeometry width="50" height="50" relative="1" as="geometry">
            <mxPoint x="685" y="970" as="sourcePoint" />
            <mxPoint x="470" y="880" as="targetPoint" />
            <Array as="points">
              <mxPoint x="580" y="900" />
              <mxPoint x="580" y="890" />
            </Array>
          </mxGeometry>
        </mxCell>
        <mxCell id="ESL95GGbfHb56Cdl-5EP-186" value="" style="endArrow=classic;html=1;rounded=0;exitX=1;exitY=0.5;exitDx=0;exitDy=0;" parent="1" source="ESL95GGbfHb56Cdl-5EP-132" edge="1">
          <mxGeometry width="50" height="50" relative="1" as="geometry">
            <mxPoint x="695" y="980" as="sourcePoint" />
            <mxPoint x="460" y="920" as="targetPoint" />
            <Array as="points">
              <mxPoint x="580" y="900" />
              <mxPoint x="580" y="910" />
            </Array>
          </mxGeometry>
        </mxCell>
        <mxCell id="ESL95GGbfHb56Cdl-5EP-187" value="success" style="text;html=1;strokeColor=none;fillColor=none;align=center;verticalAlign=middle;whiteSpace=wrap;rounded=0;" parent="1" vertex="1">
          <mxGeometry x="500" y="870" width="80" height="20" as="geometry" />
        </mxCell>
        <mxCell id="ESL95GGbfHb56Cdl-5EP-188" value="fail" style="text;html=1;strokeColor=none;fillColor=none;align=center;verticalAlign=middle;whiteSpace=wrap;rounded=0;" parent="1" vertex="1">
          <mxGeometry x="500" y="910" width="80" height="20" as="geometry" />
        </mxCell>
        <mxCell id="ESL95GGbfHb56Cdl-5EP-189" value="&lt;b&gt;cache view&lt;/b&gt;" style="text;html=1;strokeColor=none;fillColor=none;align=center;verticalAlign=middle;whiteSpace=wrap;rounded=0;" parent="1" vertex="1">
          <mxGeometry x="160" y="1280" width="80" height="40" as="geometry" />
        </mxCell>
        <mxCell id="ESL95GGbfHb56Cdl-5EP-190" value="" style="rounded=0;whiteSpace=wrap;html=1;" parent="1" vertex="1">
          <mxGeometry x="360" y="1220" width="80" height="40" as="geometry" />
        </mxCell>
        <mxCell id="ESL95GGbfHb56Cdl-5EP-191" value="caches list" style="text;html=1;strokeColor=none;fillColor=none;align=center;verticalAlign=middle;whiteSpace=wrap;rounded=0;" parent="1" vertex="1">
          <mxGeometry x="360" y="1220" width="80" height="40" as="geometry" />
        </mxCell>
        <mxCell id="ESL95GGbfHb56Cdl-5EP-192" value="" style="rounded=0;whiteSpace=wrap;html=1;" parent="1" vertex="1">
          <mxGeometry x="360" y="1280" width="80" height="40" as="geometry" />
        </mxCell>
        <mxCell id="ESL95GGbfHb56Cdl-5EP-193" value="add new cache" style="text;html=1;strokeColor=none;fillColor=none;align=center;verticalAlign=middle;whiteSpace=wrap;rounded=0;" parent="1" vertex="1">
          <mxGeometry x="360" y="1280" width="80" height="40" as="geometry" />
        </mxCell>
        <mxCell id="ESL95GGbfHb56Cdl-5EP-194" value="select cache" style="text;html=1;strokeColor=none;fillColor=none;align=center;verticalAlign=middle;whiteSpace=wrap;rounded=0;" parent="1" vertex="1">
          <mxGeometry x="467.99" y="640" width="60" height="30" as="geometry" />
        </mxCell>
        <mxCell id="ESL95GGbfHb56Cdl-5EP-201" value="" style="endArrow=classic;html=1;rounded=0;exitX=1;exitY=0.5;exitDx=0;exitDy=0;" parent="1" source="ESL95GGbfHb56Cdl-5EP-191" edge="1">
          <mxGeometry width="50" height="50" relative="1" as="geometry">
            <mxPoint x="470" y="1220" as="sourcePoint" />
            <mxPoint x="500" y="1240" as="targetPoint" />
          </mxGeometry>
        </mxCell>
        <mxCell id="ESL95GGbfHb56Cdl-5EP-203" value="" style="rhombus;whiteSpace=wrap;html=1;" parent="1" vertex="1">
          <mxGeometry x="500.83000000000004" y="1290" width="20" height="20" as="geometry" />
        </mxCell>
        <mxCell id="ESL95GGbfHb56Cdl-5EP-204" value="success" style="text;html=1;strokeColor=none;fillColor=none;align=center;verticalAlign=middle;whiteSpace=wrap;rounded=0;" parent="1" vertex="1">
          <mxGeometry x="490" y="1270" width="80" height="20" as="geometry" />
        </mxCell>
        <mxCell id="ESL95GGbfHb56Cdl-5EP-205" value="fail" style="text;html=1;strokeColor=none;fillColor=none;align=center;verticalAlign=middle;whiteSpace=wrap;rounded=0;" parent="1" vertex="1">
          <mxGeometry x="490.00000000000006" y="1310" width="80" height="20" as="geometry" />
        </mxCell>
        <mxCell id="ESL95GGbfHb56Cdl-5EP-206" value="" style="endArrow=classic;html=1;rounded=0;exitX=1;exitY=0.5;exitDx=0;exitDy=0;entryX=1.012;entryY=0.598;entryDx=0;entryDy=0;entryPerimeter=0;" parent="1" source="ESL95GGbfHb56Cdl-5EP-203" target="ESL95GGbfHb56Cdl-5EP-159" edge="1">
          <mxGeometry width="50" height="50" relative="1" as="geometry">
            <mxPoint x="485.83" y="1370" as="sourcePoint" />
            <mxPoint x="460" y="1310" as="targetPoint" />
            <Array as="points">
              <mxPoint x="555.83" y="1300" />
              <mxPoint x="555.83" y="1310" />
            </Array>
          </mxGeometry>
        </mxCell>
        <mxCell id="ESL95GGbfHb56Cdl-5EP-207" value="" style="endArrow=classic;html=1;rounded=0;exitX=1;exitY=0.5;exitDx=0;exitDy=0;" parent="1" source="ESL95GGbfHb56Cdl-5EP-203" edge="1">
          <mxGeometry width="50" height="50" relative="1" as="geometry">
            <mxPoint x="485.83" y="1370" as="sourcePoint" />
            <mxPoint x="460" y="1280" as="targetPoint" />
            <Array as="points">
              <mxPoint x="555.83" y="1300" />
              <mxPoint x="555.83" y="1290" />
            </Array>
          </mxGeometry>
        </mxCell>
        <mxCell id="ESL95GGbfHb56Cdl-5EP-208" value="" style="endArrow=none;html=1;rounded=0;entryX=0;entryY=0.5;entryDx=0;entryDy=0;exitX=1;exitY=0.5;exitDx=0;exitDy=0;" parent="1" source="ESL95GGbfHb56Cdl-5EP-193" target="ESL95GGbfHb56Cdl-5EP-203" edge="1">
          <mxGeometry width="50" height="50" relative="1" as="geometry">
            <mxPoint x="450" y="1300" as="sourcePoint" />
            <mxPoint x="495.83000000000004" y="1300" as="targetPoint" />
            <Array as="points">
              <mxPoint x="480" y="1300" />
            </Array>
          </mxGeometry>
        </mxCell>
        <mxCell id="ESL95GGbfHb56Cdl-5EP-209" style="edgeStyle=orthogonalEdgeStyle;rounded=0;orthogonalLoop=1;jettySize=auto;html=1;exitX=0.5;exitY=1;exitDx=0;exitDy=0;" parent="1" source="ESL95GGbfHb56Cdl-5EP-159" target="ESL95GGbfHb56Cdl-5EP-159" edge="1">
          <mxGeometry relative="1" as="geometry" />
        </mxCell>
        <mxCell id="ESL95GGbfHb56Cdl-5EP-210" value="" style="endArrow=classic;html=1;rounded=0;exitX=1;exitY=0.5;exitDx=0;exitDy=0;entryX=0;entryY=0.5;entryDx=0;entryDy=0;" parent="1" source="ESL95GGbfHb56Cdl-5EP-189" target="ESL95GGbfHb56Cdl-5EP-191" edge="1">
          <mxGeometry width="50" height="50" relative="1" as="geometry">
            <mxPoint x="140" y="1420" as="sourcePoint" />
            <mxPoint x="310" y="1250" as="targetPoint" />
          </mxGeometry>
        </mxCell>
        <mxCell id="ESL95GGbfHb56Cdl-5EP-211" value="" style="endArrow=classic;html=1;rounded=0;entryX=0;entryY=0.5;entryDx=0;entryDy=0;exitX=1;exitY=0.5;exitDx=0;exitDy=0;" parent="1" source="ESL95GGbfHb56Cdl-5EP-189" target="ESL95GGbfHb56Cdl-5EP-193" edge="1">
          <mxGeometry width="50" height="50" relative="1" as="geometry">
            <mxPoint x="150" y="1430" as="sourcePoint" />
            <mxPoint x="200" y="1380" as="targetPoint" />
          </mxGeometry>
        </mxCell>
        <mxCell id="ESL95GGbfHb56Cdl-5EP-212" value="" style="rounded=0;whiteSpace=wrap;html=1;" parent="1" vertex="1">
          <mxGeometry x="162.99" y="1830" width="80" height="40" as="geometry" />
        </mxCell>
        <mxCell id="ESL95GGbfHb56Cdl-5EP-213" value="&lt;b&gt;rank view&lt;/b&gt;" style="text;html=1;strokeColor=none;fillColor=none;align=center;verticalAlign=middle;whiteSpace=wrap;rounded=0;" parent="1" vertex="1">
          <mxGeometry x="162.99" y="1830" width="80" height="40" as="geometry" />
        </mxCell>
        <mxCell id="ESL95GGbfHb56Cdl-5EP-214" value="" style="rounded=1;whiteSpace=wrap;html=1;" parent="1" vertex="1">
          <mxGeometry x="337.99" y="1740" width="130" height="220" as="geometry" />
        </mxCell>
        <mxCell id="ESL95GGbfHb56Cdl-5EP-221" value="" style="endArrow=none;html=1;rounded=0;" parent="1" edge="1">
          <mxGeometry width="50" height="50" relative="1" as="geometry">
            <mxPoint x="362.4" y="1940" as="sourcePoint" />
            <mxPoint x="362.4" y="1900" as="targetPoint" />
          </mxGeometry>
        </mxCell>
        <mxCell id="ESL95GGbfHb56Cdl-5EP-222" value="" style="endArrow=none;html=1;rounded=0;" parent="1" edge="1">
          <mxGeometry width="50" height="50" relative="1" as="geometry">
            <mxPoint x="362.4" y="1900" as="sourcePoint" />
            <mxPoint x="372.4" y="1900" as="targetPoint" />
          </mxGeometry>
        </mxCell>
        <mxCell id="ESL95GGbfHb56Cdl-5EP-223" value="" style="endArrow=none;html=1;rounded=0;" parent="1" edge="1">
          <mxGeometry width="50" height="50" relative="1" as="geometry">
            <mxPoint x="362.4" y="1940" as="sourcePoint" />
            <mxPoint x="372.4" y="1940" as="targetPoint" />
          </mxGeometry>
        </mxCell>
        <mxCell id="ESL95GGbfHb56Cdl-5EP-224" value="" style="endArrow=none;html=1;rounded=0;" parent="1" edge="1">
          <mxGeometry width="50" height="50" relative="1" as="geometry">
            <mxPoint x="442.4" y="1900.57" as="sourcePoint" />
            <mxPoint x="442.4" y="1940.5699999999997" as="targetPoint" />
          </mxGeometry>
        </mxCell>
        <mxCell id="ESL95GGbfHb56Cdl-5EP-225" value="" style="endArrow=none;html=1;rounded=0;" parent="1" edge="1">
          <mxGeometry width="50" height="50" relative="1" as="geometry">
            <mxPoint x="432.4" y="1900.57" as="sourcePoint" />
            <mxPoint x="442.4" y="1900.57" as="targetPoint" />
          </mxGeometry>
        </mxCell>
        <mxCell id="ESL95GGbfHb56Cdl-5EP-226" value="" style="endArrow=none;html=1;rounded=0;" parent="1" edge="1">
          <mxGeometry width="50" height="50" relative="1" as="geometry">
            <mxPoint x="432.4" y="1940.5699999999997" as="sourcePoint" />
            <mxPoint x="442.4" y="1940.5699999999997" as="targetPoint" />
          </mxGeometry>
        </mxCell>
        <mxCell id="ESL95GGbfHb56Cdl-5EP-229" value="return:&lt;br&gt;&lt;b&gt;home view&lt;/b&gt;" style="text;html=1;strokeColor=none;fillColor=none;align=center;verticalAlign=middle;whiteSpace=wrap;rounded=0;" parent="1" vertex="1">
          <mxGeometry x="362.99" y="1900" width="80" height="40" as="geometry" />
        </mxCell>
        <mxCell id="ESL95GGbfHb56Cdl-5EP-230" value="" style="endArrow=classic;html=1;rounded=0;exitX=1;exitY=0.5;exitDx=0;exitDy=0;entryX=0;entryY=0.5;entryDx=0;entryDy=0;" parent="1" source="ESL95GGbfHb56Cdl-5EP-213" target="bW9s2679o0z1CHN03vp--69" edge="1">
          <mxGeometry width="50" height="50" relative="1" as="geometry">
            <mxPoint x="482.99" y="1860" as="sourcePoint" />
            <mxPoint x="297.99" y="1810" as="targetPoint" />
          </mxGeometry>
        </mxCell>
        <mxCell id="bW9s2679o0z1CHN03vp--1" value="" style="endArrow=none;html=1;rounded=0;" edge="1" parent="1">
          <mxGeometry width="50" height="50" relative="1" as="geometry">
            <mxPoint x="630" y="40" as="sourcePoint" />
            <mxPoint x="630" as="targetPoint" />
          </mxGeometry>
        </mxCell>
        <mxCell id="bW9s2679o0z1CHN03vp--2" value="" style="endArrow=none;html=1;rounded=0;" edge="1" parent="1">
          <mxGeometry width="50" height="50" relative="1" as="geometry">
            <mxPoint x="630" as="sourcePoint" />
            <mxPoint x="640" as="targetPoint" />
          </mxGeometry>
        </mxCell>
        <mxCell id="bW9s2679o0z1CHN03vp--3" value="" style="endArrow=none;html=1;rounded=0;" edge="1" parent="1">
          <mxGeometry width="50" height="50" relative="1" as="geometry">
            <mxPoint x="630" y="40" as="sourcePoint" />
            <mxPoint x="640" y="40" as="targetPoint" />
          </mxGeometry>
        </mxCell>
        <mxCell id="bW9s2679o0z1CHN03vp--4" value="" style="endArrow=none;html=1;rounded=0;" edge="1" parent="1">
          <mxGeometry width="50" height="50" relative="1" as="geometry">
            <mxPoint x="710" y="0.5699999999999932" as="sourcePoint" />
            <mxPoint x="710" y="40.56999999999999" as="targetPoint" />
          </mxGeometry>
        </mxCell>
        <mxCell id="bW9s2679o0z1CHN03vp--5" value="" style="endArrow=none;html=1;rounded=0;" edge="1" parent="1">
          <mxGeometry width="50" height="50" relative="1" as="geometry">
            <mxPoint x="700" y="0.5699999999999932" as="sourcePoint" />
            <mxPoint x="710" y="0.5699999999999932" as="targetPoint" />
          </mxGeometry>
        </mxCell>
        <mxCell id="bW9s2679o0z1CHN03vp--6" value="" style="endArrow=none;html=1;rounded=0;" edge="1" parent="1">
          <mxGeometry width="50" height="50" relative="1" as="geometry">
            <mxPoint x="700" y="40.56999999999999" as="sourcePoint" />
            <mxPoint x="710" y="40.56999999999999" as="targetPoint" />
          </mxGeometry>
        </mxCell>
        <mxCell id="bW9s2679o0z1CHN03vp--7" value="continua:&lt;br&gt;&lt;b&gt;admin view&lt;/b&gt;" style="text;html=1;strokeColor=none;fillColor=none;align=center;verticalAlign=middle;whiteSpace=wrap;rounded=0;" vertex="1" parent="1">
          <mxGeometry x="630" y="1.4000000000000057" width="80" height="40" as="geometry" />
        </mxCell>
        <mxCell id="bW9s2679o0z1CHN03vp--8" value="login&amp;nbsp; geocacher success" style="text;html=1;strokeColor=none;fillColor=none;align=center;verticalAlign=middle;whiteSpace=wrap;rounded=0;" vertex="1" parent="1">
          <mxGeometry x="520.83" y="100" width="80" height="30" as="geometry" />
        </mxCell>
        <mxCell id="bW9s2679o0z1CHN03vp--9" value="" style="endArrow=classic;html=1;rounded=0;exitX=1;exitY=0.5;exitDx=0;exitDy=0;entryX=0;entryY=0.5;entryDx=0;entryDy=0;" edge="1" parent="1" source="ESL95GGbfHb56Cdl-5EP-41" target="ESL95GGbfHb56Cdl-5EP-51">
          <mxGeometry width="50" height="50" relative="1" as="geometry">
            <mxPoint x="510" y="110" as="sourcePoint" />
            <mxPoint x="550" y="100" as="targetPoint" />
          </mxGeometry>
        </mxCell>
        <mxCell id="bW9s2679o0z1CHN03vp--13" value="&lt;b&gt;cache info&lt;/b&gt;" style="rounded=0;whiteSpace=wrap;html=1;" vertex="1" parent="1">
          <mxGeometry x="500" y="1220" width="80" height="40" as="geometry" />
        </mxCell>
        <mxCell id="bW9s2679o0z1CHN03vp--21" value="" style="endArrow=none;html=1;rounded=0;" edge="1" parent="1">
          <mxGeometry width="50" height="50" relative="1" as="geometry">
            <mxPoint x="518.82" y="588.43" as="sourcePoint" />
            <mxPoint x="518.82" y="548.43" as="targetPoint" />
          </mxGeometry>
        </mxCell>
        <mxCell id="bW9s2679o0z1CHN03vp--22" value="" style="endArrow=none;html=1;rounded=0;" edge="1" parent="1">
          <mxGeometry width="50" height="50" relative="1" as="geometry">
            <mxPoint x="518.82" y="548.43" as="sourcePoint" />
            <mxPoint x="528.82" y="548.43" as="targetPoint" />
          </mxGeometry>
        </mxCell>
        <mxCell id="bW9s2679o0z1CHN03vp--23" value="" style="endArrow=none;html=1;rounded=0;" edge="1" parent="1">
          <mxGeometry width="50" height="50" relative="1" as="geometry">
            <mxPoint x="518.82" y="588.43" as="sourcePoint" />
            <mxPoint x="528.82" y="588.43" as="targetPoint" />
          </mxGeometry>
        </mxCell>
        <mxCell id="bW9s2679o0z1CHN03vp--24" value="" style="endArrow=none;html=1;rounded=0;" edge="1" parent="1">
          <mxGeometry width="50" height="50" relative="1" as="geometry">
            <mxPoint x="598.82" y="548.9999999999999" as="sourcePoint" />
            <mxPoint x="598.82" y="588.9999999999999" as="targetPoint" />
          </mxGeometry>
        </mxCell>
        <mxCell id="bW9s2679o0z1CHN03vp--25" value="" style="endArrow=none;html=1;rounded=0;" edge="1" parent="1">
          <mxGeometry width="50" height="50" relative="1" as="geometry">
            <mxPoint x="588.82" y="548.9999999999999" as="sourcePoint" />
            <mxPoint x="598.82" y="548.9999999999999" as="targetPoint" />
          </mxGeometry>
        </mxCell>
        <mxCell id="bW9s2679o0z1CHN03vp--26" value="" style="endArrow=none;html=1;rounded=0;" edge="1" parent="1">
          <mxGeometry width="50" height="50" relative="1" as="geometry">
            <mxPoint x="588.82" y="588.9999999999999" as="sourcePoint" />
            <mxPoint x="598.82" y="588.9999999999999" as="targetPoint" />
          </mxGeometry>
        </mxCell>
        <mxCell id="bW9s2679o0z1CHN03vp--27" value="return:&lt;br&gt;&lt;b&gt;log view&lt;/b&gt;" style="text;html=1;strokeColor=none;fillColor=none;align=center;verticalAlign=middle;whiteSpace=wrap;rounded=0;" vertex="1" parent="1">
          <mxGeometry x="518.82" y="548.43" width="80" height="40" as="geometry" />
        </mxCell>
        <mxCell id="bW9s2679o0z1CHN03vp--29" value="" style="endArrow=none;html=1;rounded=0;" edge="1" parent="1">
          <mxGeometry width="50" height="50" relative="1" as="geometry">
            <mxPoint x="357.99" y="530" as="sourcePoint" />
            <mxPoint x="357.99" y="490" as="targetPoint" />
          </mxGeometry>
        </mxCell>
        <mxCell id="bW9s2679o0z1CHN03vp--30" value="" style="endArrow=none;html=1;rounded=0;" edge="1" parent="1">
          <mxGeometry width="50" height="50" relative="1" as="geometry">
            <mxPoint x="357.99" y="490" as="sourcePoint" />
            <mxPoint x="367.99" y="490" as="targetPoint" />
          </mxGeometry>
        </mxCell>
        <mxCell id="bW9s2679o0z1CHN03vp--31" value="" style="endArrow=none;html=1;rounded=0;" edge="1" parent="1">
          <mxGeometry width="50" height="50" relative="1" as="geometry">
            <mxPoint x="357.99" y="530" as="sourcePoint" />
            <mxPoint x="367.99" y="530" as="targetPoint" />
          </mxGeometry>
        </mxCell>
        <mxCell id="bW9s2679o0z1CHN03vp--32" value="" style="endArrow=none;html=1;rounded=0;" edge="1" parent="1">
          <mxGeometry width="50" height="50" relative="1" as="geometry">
            <mxPoint x="437.99" y="490.56999999999994" as="sourcePoint" />
            <mxPoint x="437.99" y="530.5699999999999" as="targetPoint" />
          </mxGeometry>
        </mxCell>
        <mxCell id="bW9s2679o0z1CHN03vp--33" value="" style="endArrow=none;html=1;rounded=0;" edge="1" parent="1">
          <mxGeometry width="50" height="50" relative="1" as="geometry">
            <mxPoint x="427.99" y="490.56999999999994" as="sourcePoint" />
            <mxPoint x="437.99" y="490.56999999999994" as="targetPoint" />
          </mxGeometry>
        </mxCell>
        <mxCell id="bW9s2679o0z1CHN03vp--34" value="" style="endArrow=none;html=1;rounded=0;" edge="1" parent="1">
          <mxGeometry width="50" height="50" relative="1" as="geometry">
            <mxPoint x="427.99" y="530.5699999999999" as="sourcePoint" />
            <mxPoint x="437.99" y="530.5699999999999" as="targetPoint" />
          </mxGeometry>
        </mxCell>
        <mxCell id="bW9s2679o0z1CHN03vp--35" value="continua:&lt;br&gt;&lt;b&gt;friends view&lt;/b&gt;" style="text;html=1;strokeColor=none;fillColor=none;align=center;verticalAlign=middle;whiteSpace=wrap;rounded=0;" vertex="1" parent="1">
          <mxGeometry x="357.99" y="490" width="80" height="40" as="geometry" />
        </mxCell>
        <mxCell id="bW9s2679o0z1CHN03vp--36" value="&lt;b&gt;log out&lt;/b&gt;" style="rounded=0;whiteSpace=wrap;html=1;" vertex="1" parent="1">
          <mxGeometry x="357.99" y="550" width="80" height="40" as="geometry" />
        </mxCell>
        <mxCell id="bW9s2679o0z1CHN03vp--37" value="" style="endArrow=classic;html=1;rounded=0;exitX=1;exitY=0.5;exitDx=0;exitDy=0;entryX=0;entryY=0.5;entryDx=0;entryDy=0;" edge="1" parent="1">
          <mxGeometry width="50" height="50" relative="1" as="geometry">
            <mxPoint x="437.99" y="569.5" as="sourcePoint" />
            <mxPoint x="518.99" y="569.5" as="targetPoint" />
          </mxGeometry>
        </mxCell>
        <mxCell id="bW9s2679o0z1CHN03vp--39" value="" style="endArrow=classic;html=1;rounded=0;exitX=1;exitY=0.5;exitDx=0;exitDy=0;entryX=0;entryY=0.5;entryDx=0;entryDy=0;" edge="1" parent="1" source="ESL95GGbfHb56Cdl-5EP-70" target="bW9s2679o0z1CHN03vp--36">
          <mxGeometry width="50" height="50" relative="1" as="geometry">
            <mxPoint x="97.99" y="510" as="sourcePoint" />
            <mxPoint x="217.99" y="530" as="targetPoint" />
          </mxGeometry>
        </mxCell>
        <mxCell id="bW9s2679o0z1CHN03vp--40" value="" style="endArrow=classic;html=1;rounded=0;exitX=1;exitY=0.5;exitDx=0;exitDy=0;entryX=0;entryY=0.5;entryDx=0;entryDy=0;" edge="1" parent="1" source="ESL95GGbfHb56Cdl-5EP-70" target="bW9s2679o0z1CHN03vp--35">
          <mxGeometry width="50" height="50" relative="1" as="geometry">
            <mxPoint x="107.99" y="520" as="sourcePoint" />
            <mxPoint x="227.99" y="540" as="targetPoint" />
          </mxGeometry>
        </mxCell>
        <mxCell id="bW9s2679o0z1CHN03vp--41" value="" style="endArrow=none;html=1;rounded=0;" edge="1" parent="1">
          <mxGeometry width="50" height="50" relative="1" as="geometry">
            <mxPoint x="356.99" y="1379.22" as="sourcePoint" />
            <mxPoint x="356.99" y="1339.22" as="targetPoint" />
          </mxGeometry>
        </mxCell>
        <mxCell id="bW9s2679o0z1CHN03vp--42" value="" style="endArrow=none;html=1;rounded=0;" edge="1" parent="1">
          <mxGeometry width="50" height="50" relative="1" as="geometry">
            <mxPoint x="356.99" y="1339.22" as="sourcePoint" />
            <mxPoint x="366.99" y="1339.22" as="targetPoint" />
          </mxGeometry>
        </mxCell>
        <mxCell id="bW9s2679o0z1CHN03vp--43" value="" style="endArrow=none;html=1;rounded=0;" edge="1" parent="1">
          <mxGeometry width="50" height="50" relative="1" as="geometry">
            <mxPoint x="356.99" y="1379.22" as="sourcePoint" />
            <mxPoint x="366.99" y="1379.22" as="targetPoint" />
          </mxGeometry>
        </mxCell>
        <mxCell id="bW9s2679o0z1CHN03vp--44" value="" style="endArrow=none;html=1;rounded=0;" edge="1" parent="1">
          <mxGeometry width="50" height="50" relative="1" as="geometry">
            <mxPoint x="436.99" y="1339.79" as="sourcePoint" />
            <mxPoint x="436.99" y="1379.79" as="targetPoint" />
          </mxGeometry>
        </mxCell>
        <mxCell id="bW9s2679o0z1CHN03vp--45" value="" style="endArrow=none;html=1;rounded=0;" edge="1" parent="1">
          <mxGeometry width="50" height="50" relative="1" as="geometry">
            <mxPoint x="426.99" y="1339.79" as="sourcePoint" />
            <mxPoint x="436.99" y="1339.79" as="targetPoint" />
          </mxGeometry>
        </mxCell>
        <mxCell id="bW9s2679o0z1CHN03vp--46" value="" style="endArrow=none;html=1;rounded=0;" edge="1" parent="1">
          <mxGeometry width="50" height="50" relative="1" as="geometry">
            <mxPoint x="426.99" y="1379.79" as="sourcePoint" />
            <mxPoint x="436.99" y="1379.79" as="targetPoint" />
          </mxGeometry>
        </mxCell>
        <mxCell id="bW9s2679o0z1CHN03vp--47" value="return:&lt;br&gt;&lt;b&gt;home view&lt;/b&gt;" style="text;html=1;strokeColor=none;fillColor=none;align=center;verticalAlign=middle;whiteSpace=wrap;rounded=0;" vertex="1" parent="1">
          <mxGeometry x="357.82000000000005" y="1339.22" width="80" height="40" as="geometry" />
        </mxCell>
        <mxCell id="bW9s2679o0z1CHN03vp--49" value="change info" style="text;html=1;strokeColor=none;fillColor=none;align=center;verticalAlign=middle;whiteSpace=wrap;rounded=0;" vertex="1" parent="1">
          <mxGeometry x="360" y="880" width="80" height="40" as="geometry" />
        </mxCell>
        <mxCell id="bW9s2679o0z1CHN03vp--50" value="" style="rounded=0;whiteSpace=wrap;html=1;" vertex="1" parent="1">
          <mxGeometry x="157.4" y="1555" width="80" height="40" as="geometry" />
        </mxCell>
        <mxCell id="bW9s2679o0z1CHN03vp--51" value="&lt;b&gt;friends view&lt;/b&gt;" style="text;html=1;strokeColor=none;fillColor=none;align=center;verticalAlign=middle;whiteSpace=wrap;rounded=0;" vertex="1" parent="1">
          <mxGeometry x="157.4" y="1555" width="80" height="40" as="geometry" />
        </mxCell>
        <mxCell id="bW9s2679o0z1CHN03vp--52" value="" style="rounded=1;whiteSpace=wrap;html=1;" vertex="1" parent="1">
          <mxGeometry x="337.98999999999995" y="1460" width="130" height="230" as="geometry" />
        </mxCell>
        <mxCell id="bW9s2679o0z1CHN03vp--69" value="&lt;b&gt;global rank&lt;/b&gt;" style="rounded=0;whiteSpace=wrap;html=1;" vertex="1" parent="1">
          <mxGeometry x="362.99" y="1760" width="80" height="40" as="geometry" />
        </mxCell>
        <mxCell id="bW9s2679o0z1CHN03vp--70" value="&lt;b&gt;friends rank&lt;/b&gt;" style="rounded=0;whiteSpace=wrap;html=1;" vertex="1" parent="1">
          <mxGeometry x="362.99" y="1830" width="80" height="40" as="geometry" />
        </mxCell>
        <mxCell id="bW9s2679o0z1CHN03vp--71" value="" style="endArrow=classic;html=1;rounded=0;exitX=1;exitY=0.5;exitDx=0;exitDy=0;entryX=0;entryY=0.5;entryDx=0;entryDy=0;" edge="1" parent="1" source="ESL95GGbfHb56Cdl-5EP-213" target="bW9s2679o0z1CHN03vp--70">
          <mxGeometry width="50" height="50" relative="1" as="geometry">
            <mxPoint x="280.98" y="1890" as="sourcePoint" />
            <mxPoint x="335.98" y="1830" as="targetPoint" />
          </mxGeometry>
        </mxCell>
        <mxCell id="bW9s2679o0z1CHN03vp--72" value="" style="endArrow=classic;html=1;rounded=0;exitX=1;exitY=0.5;exitDx=0;exitDy=0;entryX=0;entryY=0.5;entryDx=0;entryDy=0;" edge="1" parent="1" source="ESL95GGbfHb56Cdl-5EP-213" target="ESL95GGbfHb56Cdl-5EP-229">
          <mxGeometry width="50" height="50" relative="1" as="geometry">
            <mxPoint x="227.99" y="1960" as="sourcePoint" />
            <mxPoint x="282.99" y="1900" as="targetPoint" />
          </mxGeometry>
        </mxCell>
        <mxCell id="bW9s2679o0z1CHN03vp--73" value="" style="endArrow=none;html=1;rounded=0;" edge="1" parent="1">
          <mxGeometry width="50" height="50" relative="1" as="geometry">
            <mxPoint x="362.3999999999999" y="1661" as="sourcePoint" />
            <mxPoint x="362.3999999999999" y="1621" as="targetPoint" />
          </mxGeometry>
        </mxCell>
        <mxCell id="bW9s2679o0z1CHN03vp--74" value="" style="endArrow=none;html=1;rounded=0;" edge="1" parent="1">
          <mxGeometry width="50" height="50" relative="1" as="geometry">
            <mxPoint x="362.3999999999999" y="1621" as="sourcePoint" />
            <mxPoint x="372.3999999999999" y="1621" as="targetPoint" />
          </mxGeometry>
        </mxCell>
        <mxCell id="bW9s2679o0z1CHN03vp--75" value="" style="endArrow=none;html=1;rounded=0;" edge="1" parent="1">
          <mxGeometry width="50" height="50" relative="1" as="geometry">
            <mxPoint x="362.3999999999999" y="1661" as="sourcePoint" />
            <mxPoint x="372.3999999999999" y="1661" as="targetPoint" />
          </mxGeometry>
        </mxCell>
        <mxCell id="bW9s2679o0z1CHN03vp--76" value="" style="endArrow=none;html=1;rounded=0;" edge="1" parent="1">
          <mxGeometry width="50" height="50" relative="1" as="geometry">
            <mxPoint x="442.3999999999999" y="1621.57" as="sourcePoint" />
            <mxPoint x="442.3999999999999" y="1661.5699999999997" as="targetPoint" />
          </mxGeometry>
        </mxCell>
        <mxCell id="bW9s2679o0z1CHN03vp--77" value="" style="endArrow=none;html=1;rounded=0;" edge="1" parent="1">
          <mxGeometry width="50" height="50" relative="1" as="geometry">
            <mxPoint x="432.3999999999999" y="1621.57" as="sourcePoint" />
            <mxPoint x="442.3999999999999" y="1621.57" as="targetPoint" />
          </mxGeometry>
        </mxCell>
        <mxCell id="bW9s2679o0z1CHN03vp--78" value="" style="endArrow=none;html=1;rounded=0;" edge="1" parent="1">
          <mxGeometry width="50" height="50" relative="1" as="geometry">
            <mxPoint x="432.3999999999999" y="1661.5699999999997" as="sourcePoint" />
            <mxPoint x="442.3999999999999" y="1661.5699999999997" as="targetPoint" />
          </mxGeometry>
        </mxCell>
        <mxCell id="bW9s2679o0z1CHN03vp--79" value="return:&lt;br&gt;&lt;b&gt;home view&lt;/b&gt;" style="text;html=1;strokeColor=none;fillColor=none;align=center;verticalAlign=middle;whiteSpace=wrap;rounded=0;" vertex="1" parent="1">
          <mxGeometry x="362.98999999999995" y="1621" width="80" height="40" as="geometry" />
        </mxCell>
        <mxCell id="bW9s2679o0z1CHN03vp--82" value="" style="rounded=0;whiteSpace=wrap;html=1;" vertex="1" parent="1">
          <mxGeometry x="362.99" y="1555" width="80" height="40" as="geometry" />
        </mxCell>
        <mxCell id="bW9s2679o0z1CHN03vp--83" value="&lt;b&gt;friends list&lt;/b&gt;" style="text;html=1;strokeColor=none;fillColor=none;align=center;verticalAlign=middle;whiteSpace=wrap;rounded=0;" vertex="1" parent="1">
          <mxGeometry x="362.99" y="1555" width="80" height="40" as="geometry" />
        </mxCell>
        <mxCell id="bW9s2679o0z1CHN03vp--84" value="" style="rounded=0;whiteSpace=wrap;html=1;" vertex="1" parent="1">
          <mxGeometry x="362.99" y="1490" width="80" height="40" as="geometry" />
        </mxCell>
        <mxCell id="bW9s2679o0z1CHN03vp--85" value="&lt;b&gt;request list&lt;/b&gt;" style="text;html=1;strokeColor=none;fillColor=none;align=center;verticalAlign=middle;whiteSpace=wrap;rounded=0;" vertex="1" parent="1">
          <mxGeometry x="362.99" y="1490" width="80" height="40" as="geometry" />
        </mxCell>
        <mxCell id="bW9s2679o0z1CHN03vp--86" value="" style="endArrow=classic;html=1;rounded=0;exitX=1;exitY=0.5;exitDx=0;exitDy=0;entryX=0;entryY=0.5;entryDx=0;entryDy=0;" edge="1" parent="1" source="bW9s2679o0z1CHN03vp--51" target="bW9s2679o0z1CHN03vp--85">
          <mxGeometry width="50" height="50" relative="1" as="geometry">
            <mxPoint x="67.4" y="1540" as="sourcePoint" />
            <mxPoint x="187.4" y="1470" as="targetPoint" />
          </mxGeometry>
        </mxCell>
        <mxCell id="bW9s2679o0z1CHN03vp--87" value="" style="endArrow=classic;html=1;rounded=0;exitX=1;exitY=0.5;exitDx=0;exitDy=0;entryX=0;entryY=0.5;entryDx=0;entryDy=0;" edge="1" parent="1" source="bW9s2679o0z1CHN03vp--51" target="bW9s2679o0z1CHN03vp--83">
          <mxGeometry width="50" height="50" relative="1" as="geometry">
            <mxPoint x="77.4" y="1550" as="sourcePoint" />
            <mxPoint x="197.4" y="1480" as="targetPoint" />
          </mxGeometry>
        </mxCell>
        <mxCell id="bW9s2679o0z1CHN03vp--88" value="" style="endArrow=classic;html=1;rounded=0;exitX=1;exitY=0.5;exitDx=0;exitDy=0;entryX=0;entryY=0.5;entryDx=0;entryDy=0;" edge="1" parent="1" source="bW9s2679o0z1CHN03vp--51" target="bW9s2679o0z1CHN03vp--79">
          <mxGeometry width="50" height="50" relative="1" as="geometry">
            <mxPoint x="87.4" y="1560" as="sourcePoint" />
            <mxPoint x="207.4" y="1490" as="targetPoint" />
          </mxGeometry>
        </mxCell>
        <mxCell id="bW9s2679o0z1CHN03vp--89" value="" style="rounded=0;whiteSpace=wrap;html=1;" vertex="1" parent="1">
          <mxGeometry x="162.99" y="2090" width="80" height="40" as="geometry" />
        </mxCell>
        <mxCell id="bW9s2679o0z1CHN03vp--90" value="&lt;b&gt;admin view&lt;/b&gt;" style="text;html=1;strokeColor=none;fillColor=none;align=center;verticalAlign=middle;whiteSpace=wrap;rounded=0;" vertex="1" parent="1">
          <mxGeometry x="162.99" y="2090" width="80" height="40" as="geometry" />
        </mxCell>
        <mxCell id="bW9s2679o0z1CHN03vp--91" value="" style="rounded=1;whiteSpace=wrap;html=1;" vertex="1" parent="1">
          <mxGeometry x="340" y="2000" width="130" height="320" as="geometry" />
        </mxCell>
        <mxCell id="bW9s2679o0z1CHN03vp--92" value="" style="endArrow=none;html=1;rounded=0;" edge="1" parent="1">
          <mxGeometry width="50" height="50" relative="1" as="geometry">
            <mxPoint x="520.83" y="2308.1800000000003" as="sourcePoint" />
            <mxPoint x="520.83" y="2268.1800000000003" as="targetPoint" />
          </mxGeometry>
        </mxCell>
        <mxCell id="bW9s2679o0z1CHN03vp--93" value="" style="endArrow=none;html=1;rounded=0;" edge="1" parent="1">
          <mxGeometry width="50" height="50" relative="1" as="geometry">
            <mxPoint x="520.83" y="2268.1800000000003" as="sourcePoint" />
            <mxPoint x="530.83" y="2268.1800000000003" as="targetPoint" />
          </mxGeometry>
        </mxCell>
        <mxCell id="bW9s2679o0z1CHN03vp--94" value="" style="endArrow=none;html=1;rounded=0;" edge="1" parent="1">
          <mxGeometry width="50" height="50" relative="1" as="geometry">
            <mxPoint x="520.83" y="2308.1800000000003" as="sourcePoint" />
            <mxPoint x="530.83" y="2308.1800000000003" as="targetPoint" />
          </mxGeometry>
        </mxCell>
        <mxCell id="bW9s2679o0z1CHN03vp--95" value="" style="endArrow=none;html=1;rounded=0;" edge="1" parent="1">
          <mxGeometry width="50" height="50" relative="1" as="geometry">
            <mxPoint x="600.83" y="2268.75" as="sourcePoint" />
            <mxPoint x="600.83" y="2308.75" as="targetPoint" />
          </mxGeometry>
        </mxCell>
        <mxCell id="bW9s2679o0z1CHN03vp--96" value="" style="endArrow=none;html=1;rounded=0;" edge="1" parent="1">
          <mxGeometry width="50" height="50" relative="1" as="geometry">
            <mxPoint x="590.83" y="2268.75" as="sourcePoint" />
            <mxPoint x="600.83" y="2268.75" as="targetPoint" />
          </mxGeometry>
        </mxCell>
        <mxCell id="bW9s2679o0z1CHN03vp--97" value="" style="endArrow=none;html=1;rounded=0;" edge="1" parent="1">
          <mxGeometry width="50" height="50" relative="1" as="geometry">
            <mxPoint x="590.83" y="2308.75" as="sourcePoint" />
            <mxPoint x="600.83" y="2308.75" as="targetPoint" />
          </mxGeometry>
        </mxCell>
        <mxCell id="bW9s2679o0z1CHN03vp--98" value="return:&lt;br&gt;&lt;b&gt;log view&lt;/b&gt;" style="text;html=1;strokeColor=none;fillColor=none;align=center;verticalAlign=middle;whiteSpace=wrap;rounded=0;" vertex="1" parent="1">
          <mxGeometry x="521.4200000000001" y="2268.1800000000003" width="80" height="40" as="geometry" />
        </mxCell>
        <mxCell id="bW9s2679o0z1CHN03vp--99" value="" style="endArrow=classic;html=1;rounded=0;exitX=1;exitY=0.5;exitDx=0;exitDy=0;entryX=0;entryY=0.5;entryDx=0;entryDy=0;" edge="1" parent="1" source="bW9s2679o0z1CHN03vp--90" target="bW9s2679o0z1CHN03vp--100">
          <mxGeometry width="50" height="50" relative="1" as="geometry">
            <mxPoint x="482.99" y="2120" as="sourcePoint" />
            <mxPoint x="297.99" y="2070" as="targetPoint" />
          </mxGeometry>
        </mxCell>
        <mxCell id="bW9s2679o0z1CHN03vp--100" value="&lt;b&gt;users info&lt;/b&gt;" style="rounded=0;whiteSpace=wrap;html=1;" vertex="1" parent="1">
          <mxGeometry x="362.99" y="2020" width="80" height="40" as="geometry" />
        </mxCell>
        <mxCell id="bW9s2679o0z1CHN03vp--101" value="&lt;b&gt;cache info&lt;/b&gt;" style="rounded=0;whiteSpace=wrap;html=1;" vertex="1" parent="1">
          <mxGeometry x="362.99" y="2090" width="80" height="40" as="geometry" />
        </mxCell>
        <mxCell id="bW9s2679o0z1CHN03vp--102" value="" style="endArrow=classic;html=1;rounded=0;exitX=1;exitY=0.5;exitDx=0;exitDy=0;entryX=0;entryY=0.5;entryDx=0;entryDy=0;" edge="1" parent="1" source="bW9s2679o0z1CHN03vp--90" target="bW9s2679o0z1CHN03vp--101">
          <mxGeometry width="50" height="50" relative="1" as="geometry">
            <mxPoint x="280.98" y="2150" as="sourcePoint" />
            <mxPoint x="335.98" y="2090" as="targetPoint" />
          </mxGeometry>
        </mxCell>
        <mxCell id="bW9s2679o0z1CHN03vp--103" value="" style="endArrow=classic;html=1;rounded=0;exitX=1;exitY=0.5;exitDx=0;exitDy=0;entryX=0;entryY=0.5;entryDx=0;entryDy=0;" edge="1" parent="1" source="bW9s2679o0z1CHN03vp--90" target="bW9s2679o0z1CHN03vp--109">
          <mxGeometry width="50" height="50" relative="1" as="geometry">
            <mxPoint x="227.99" y="2220" as="sourcePoint" />
            <mxPoint x="320" y="2160" as="targetPoint" />
          </mxGeometry>
        </mxCell>
        <mxCell id="bW9s2679o0z1CHN03vp--106" value="" style="rounded=0;whiteSpace=wrap;html=1;" vertex="1" parent="1">
          <mxGeometry x="362.99" y="2210" width="80" height="40" as="geometry" />
        </mxCell>
        <mxCell id="bW9s2679o0z1CHN03vp--107" value="&lt;b&gt;add admin&lt;/b&gt;" style="text;html=1;strokeColor=none;fillColor=none;align=center;verticalAlign=middle;whiteSpace=wrap;rounded=0;" vertex="1" parent="1">
          <mxGeometry x="362.99" y="2210" width="80" height="40" as="geometry" />
        </mxCell>
        <mxCell id="bW9s2679o0z1CHN03vp--108" value="" style="rounded=0;whiteSpace=wrap;html=1;" vertex="1" parent="1">
          <mxGeometry x="362.99" y="2150" width="80" height="40" as="geometry" />
        </mxCell>
        <mxCell id="bW9s2679o0z1CHN03vp--109" value="&lt;b&gt;request info&lt;/b&gt;" style="text;html=1;strokeColor=none;fillColor=none;align=center;verticalAlign=middle;whiteSpace=wrap;rounded=0;" vertex="1" parent="1">
          <mxGeometry x="362.99" y="2150" width="80" height="40" as="geometry" />
        </mxCell>
        <mxCell id="bW9s2679o0z1CHN03vp--111" value="" style="rounded=0;whiteSpace=wrap;html=1;" vertex="1" parent="1">
          <mxGeometry x="362.99" y="2270" width="80" height="40" as="geometry" />
        </mxCell>
        <mxCell id="bW9s2679o0z1CHN03vp--112" value="&lt;b&gt;log out&lt;/b&gt;" style="text;html=1;strokeColor=none;fillColor=none;align=center;verticalAlign=middle;whiteSpace=wrap;rounded=0;" vertex="1" parent="1">
          <mxGeometry x="362.99" y="2270" width="80" height="40" as="geometry" />
        </mxCell>
        <mxCell id="bW9s2679o0z1CHN03vp--113" value="" style="rounded=0;whiteSpace=wrap;html=1;" vertex="1" parent="1">
          <mxGeometry x="518.8199999999999" y="2020" width="80" height="40" as="geometry" />
        </mxCell>
        <mxCell id="bW9s2679o0z1CHN03vp--114" value="&lt;b&gt;users list&lt;/b&gt;" style="text;html=1;strokeColor=none;fillColor=none;align=center;verticalAlign=middle;whiteSpace=wrap;rounded=0;" vertex="1" parent="1">
          <mxGeometry x="518.8199999999999" y="2020" width="80" height="40" as="geometry" />
        </mxCell>
        <mxCell id="bW9s2679o0z1CHN03vp--115" value="" style="rounded=0;whiteSpace=wrap;html=1;" vertex="1" parent="1">
          <mxGeometry x="520.8299999999999" y="2090" width="80" height="40" as="geometry" />
        </mxCell>
        <mxCell id="bW9s2679o0z1CHN03vp--116" value="&lt;b&gt;cache list&lt;/b&gt;" style="text;html=1;strokeColor=none;fillColor=none;align=center;verticalAlign=middle;whiteSpace=wrap;rounded=0;" vertex="1" parent="1">
          <mxGeometry x="520.8299999999999" y="2090" width="80" height="40" as="geometry" />
        </mxCell>
        <mxCell id="bW9s2679o0z1CHN03vp--117" value="" style="rounded=0;whiteSpace=wrap;html=1;" vertex="1" parent="1">
          <mxGeometry x="519.9999999999999" y="2150" width="80" height="40" as="geometry" />
        </mxCell>
        <mxCell id="bW9s2679o0z1CHN03vp--118" value="&lt;b&gt;request list&lt;/b&gt;" style="text;html=1;strokeColor=none;fillColor=none;align=center;verticalAlign=middle;whiteSpace=wrap;rounded=0;" vertex="1" parent="1">
          <mxGeometry x="519.9999999999999" y="2150" width="80" height="40" as="geometry" />
        </mxCell>
        <mxCell id="bW9s2679o0z1CHN03vp--124" value="" style="rhombus;whiteSpace=wrap;html=1;" vertex="1" parent="1">
          <mxGeometry x="510.83000000000004" y="2220" width="20" height="20" as="geometry" />
        </mxCell>
        <mxCell id="bW9s2679o0z1CHN03vp--125" value="success" style="text;html=1;strokeColor=none;fillColor=none;align=center;verticalAlign=middle;whiteSpace=wrap;rounded=0;" vertex="1" parent="1">
          <mxGeometry x="500" y="2200" width="80" height="20" as="geometry" />
        </mxCell>
        <mxCell id="bW9s2679o0z1CHN03vp--126" value="fail" style="text;html=1;strokeColor=none;fillColor=none;align=center;verticalAlign=middle;whiteSpace=wrap;rounded=0;" vertex="1" parent="1">
          <mxGeometry x="500" y="2240" width="80" height="20" as="geometry" />
        </mxCell>
        <mxCell id="bW9s2679o0z1CHN03vp--127" value="" style="endArrow=classic;html=1;rounded=0;exitX=1;exitY=0.5;exitDx=0;exitDy=0;" edge="1" parent="1" source="bW9s2679o0z1CHN03vp--124">
          <mxGeometry width="50" height="50" relative="1" as="geometry">
            <mxPoint x="495.8299999999999" y="2300" as="sourcePoint" />
            <mxPoint x="470" y="2250" as="targetPoint" />
            <Array as="points">
              <mxPoint x="565.83" y="2230" />
              <mxPoint x="565.83" y="2240" />
            </Array>
          </mxGeometry>
        </mxCell>
        <mxCell id="bW9s2679o0z1CHN03vp--128" value="" style="endArrow=classic;html=1;rounded=0;exitX=1;exitY=0.5;exitDx=0;exitDy=0;" edge="1" parent="1" source="bW9s2679o0z1CHN03vp--124">
          <mxGeometry width="50" height="50" relative="1" as="geometry">
            <mxPoint x="495.8299999999999" y="2300" as="sourcePoint" />
            <mxPoint x="470" y="2210" as="targetPoint" />
            <Array as="points">
              <mxPoint x="565.83" y="2230" />
              <mxPoint x="565.83" y="2220" />
            </Array>
          </mxGeometry>
        </mxCell>
        <mxCell id="bW9s2679o0z1CHN03vp--129" value="" style="endArrow=none;html=1;rounded=0;entryX=0;entryY=0.5;entryDx=0;entryDy=0;exitX=1;exitY=0.5;exitDx=0;exitDy=0;" edge="1" parent="1" target="bW9s2679o0z1CHN03vp--124" source="bW9s2679o0z1CHN03vp--107">
          <mxGeometry width="50" height="50" relative="1" as="geometry">
            <mxPoint x="480" y="2230" as="sourcePoint" />
            <mxPoint x="505.83000000000004" y="2230" as="targetPoint" />
            <Array as="points">
              <mxPoint x="490" y="2230" />
            </Array>
          </mxGeometry>
        </mxCell>
        <mxCell id="bW9s2679o0z1CHN03vp--130" value="" style="endArrow=classic;html=1;rounded=0;exitX=1;exitY=0.5;exitDx=0;exitDy=0;entryX=0;entryY=0.5;entryDx=0;entryDy=0;" edge="1" parent="1" source="bW9s2679o0z1CHN03vp--90" target="bW9s2679o0z1CHN03vp--112">
          <mxGeometry width="50" height="50" relative="1" as="geometry">
            <mxPoint x="220" y="2190" as="sourcePoint" />
            <mxPoint x="297" y="2240" as="targetPoint" />
          </mxGeometry>
        </mxCell>
        <mxCell id="bW9s2679o0z1CHN03vp--131" value="" style="endArrow=classic;html=1;rounded=0;exitX=1;exitY=0.5;exitDx=0;exitDy=0;entryX=0;entryY=0.5;entryDx=0;entryDy=0;" edge="1" parent="1" source="bW9s2679o0z1CHN03vp--112" target="bW9s2679o0z1CHN03vp--98">
          <mxGeometry width="50" height="50" relative="1" as="geometry">
            <mxPoint x="230" y="2200" as="sourcePoint" />
            <mxPoint x="307" y="2250" as="targetPoint" />
          </mxGeometry>
        </mxCell>
        <mxCell id="bW9s2679o0z1CHN03vp--132" value="" style="endArrow=classic;html=1;rounded=0;exitX=1;exitY=0.5;exitDx=0;exitDy=0;entryX=0;entryY=0.5;entryDx=0;entryDy=0;" edge="1" parent="1" source="bW9s2679o0z1CHN03vp--109" target="bW9s2679o0z1CHN03vp--118">
          <mxGeometry width="50" height="50" relative="1" as="geometry">
            <mxPoint x="240" y="2210" as="sourcePoint" />
            <mxPoint x="317" y="2260" as="targetPoint" />
          </mxGeometry>
        </mxCell>
        <mxCell id="bW9s2679o0z1CHN03vp--133" value="" style="endArrow=classic;html=1;rounded=0;exitX=1;exitY=0.5;exitDx=0;exitDy=0;entryX=0;entryY=0.5;entryDx=0;entryDy=0;" edge="1" parent="1" source="bW9s2679o0z1CHN03vp--101" target="bW9s2679o0z1CHN03vp--116">
          <mxGeometry width="50" height="50" relative="1" as="geometry">
            <mxPoint x="250" y="2220" as="sourcePoint" />
            <mxPoint x="327" y="2270" as="targetPoint" />
          </mxGeometry>
        </mxCell>
        <mxCell id="bW9s2679o0z1CHN03vp--134" value="" style="endArrow=classic;html=1;rounded=0;exitX=1;exitY=0.5;exitDx=0;exitDy=0;entryX=0;entryY=0.5;entryDx=0;entryDy=0;" edge="1" parent="1" source="bW9s2679o0z1CHN03vp--100" target="bW9s2679o0z1CHN03vp--114">
          <mxGeometry width="50" height="50" relative="1" as="geometry">
            <mxPoint x="680" y="2060" as="sourcePoint" />
            <mxPoint x="757" y="2110" as="targetPoint" />
          </mxGeometry>
        </mxCell>
        <mxCell id="bW9s2679o0z1CHN03vp--135" value="" style="endArrow=classic;html=1;rounded=0;exitX=1;exitY=0.5;exitDx=0;exitDy=0;entryX=0;entryY=0.5;entryDx=0;entryDy=0;" edge="1" parent="1" source="bW9s2679o0z1CHN03vp--90" target="bW9s2679o0z1CHN03vp--107">
          <mxGeometry width="50" height="50" relative="1" as="geometry">
            <mxPoint x="230" y="2200" as="sourcePoint" />
            <mxPoint x="307" y="2250" as="targetPoint" />
          </mxGeometry>
        </mxCell>
        <mxCell id="bW9s2679o0z1CHN03vp--136" value="" style="endArrow=classic;html=1;rounded=0;entryX=0;entryY=0.5;entryDx=0;entryDy=0;exitX=1;exitY=0.5;exitDx=0;exitDy=0;" edge="1" parent="1" source="ESL95GGbfHb56Cdl-5EP-189" target="bW9s2679o0z1CHN03vp--47">
          <mxGeometry width="50" height="50" relative="1" as="geometry">
            <mxPoint x="250" y="1340" as="sourcePoint" />
            <mxPoint x="370" y="1310" as="targetPoint" />
          </mxGeometry>
        </mxCell>
      </root>
    </mxGraphModel>
  </diagram>
</mxfile>
